<?xml version="1.0" encoding="utf-8"?>
<!-- Svg Vector Icons : http://www.onlinewebfonts.com/icon -->
<!DOCTYPE svg PUBLIC "-//W3C//DTD SVG 1.1//EN" "http://www.w3.org/Graphics/SVG/1.1/DTD/svg11.dtd">
<svg version="1.1" xmlns="http://www.w3.org/2000/svg" xmlns:xlink="http://www.w3.org/1999/xlink" x="0px" y="0px" viewBox="0 0 1000 1000" enable-background="new 0 0 1000 1000" xml:space="preserve">
<metadata> Svg Vector Icons : http://www.onlinewebfonts.com/icon </metadata>
<g><path style="fill:black;" d="M25.7,841.5L841.5,25.7c21-21,54.9-21,75.9,0l57,56.9c20.9,21,20.9,54.9,0,75.9L158.5,974.3c-21,21-54.9,21-75.9,0l-56.9-56.9C4.8,896.4,4.8,862.4,25.7,841.5z"/><path style="fill:black;" d="M158.5,25.7l815.8,815.8c20.9,20.9,20.9,54.9,0,75.8l-57,56.9c-20.9,21-54.9,21-75.9,0L25.7,158.5c-21-21-21-54.9,0-75.9l56.9-56.9C103.6,4.7,137.6,4.7,158.5,25.7z"/></g>
</svg>