<?xml version="1.0" encoding="utf-8"?>
<!-- Svg Vector Icons : http://www.onlinewebfonts.com/icon -->
<!DOCTYPE svg PUBLIC "-//W3C//DTD SVG 1.1//EN" "http://www.w3.org/Graphics/SVG/1.1/DTD/svg11.dtd">
<svg version="1.1" xmlns="http://www.w3.org/2000/svg" xmlns:xlink="http://www.w3.org/1999/xlink" x="0px" y="0px" viewBox="0 0 1000 1000" enable-background="new 0 0 1000 1000" xml:space="preserve">
<metadata> Svg Vector Icons : http://www.onlinewebfonts.com/icon </metadata>
<g><g transform="translate(0.000000,511.000000) scale(0.100000,-0.100000)"><path style="fill:black;" d="M4701.4,5003.9c-316.5-19.9-386.2-33.8-443.9-93.6c-59.7-59.7-49.8-23.9-161.3-523.5c-177.2-792.3-187.1-826.1-244.8-881.9c-51.7-47.8-292.6-157.3-404.1-183.1c-77.6-17.9-139.3,13.9-674.8,352.3c-583.3,368.3-557.4,354.3-643,354.3c-97.6,0-260.8-127.4-591.2-457.9c-330.4-330.4-457.9-493.7-457.9-591.2c0-85.6-13.9-61.7,354.3-643c338.4-535.5,370.3-597.2,352.4-674.8c-25.9-111.5-135.4-352.3-183.1-404.1c-55.7-57.7-101.5-71.7-881.9-244.8c-224.9-49.8-435.9-103.5-471.8-121.4c-35.8-17.9-77.6-61.7-93.5-95.5c-75.7-159.3-75.7-1218.3,0-1375.5c15.9-35.8,57.7-79.6,93.5-97.5c35.8-17.9,340.4-93.6,676.8-169.2c531.5-119.5,623.1-145.3,668.9-189.1c67.7-63.7,189.1-356.3,189.1-451.9c2-77.6,13.9-55.7-443.9-782.3c-310.5-495.7-310.5-497.7-167.2-692.8c121.4-161.2,597.2-637,758.4-758.4c133.4-99.6,219-117.5,308.6-69.7c23.9,11.9,262.8,161.3,531.5,330.4c268.7,169.2,517.6,320.5,555.4,336.4c77.6,33.8,115.5,25.9,326.5-59.7c246.8-99.5,234.9-77.6,394.2-784.3c75.6-336.4,151.3-641,167.2-672.8c43.8-85.6,89.6-107.5,264.7-131.4c201.1-25.9,846-23.9,1049.1,2c256.8,33.8,244.8,11.9,418,776.3c167.2,736.5,153.3,710.7,402.1,810.2c211,85.6,248.8,93.6,326.5,59.7c37.8-15.9,286.7-167.2,555.4-336.4c583.3-368.3,557.4-354.3,643-354.3c97.5,0,260.8,127.4,591.2,457.9c330.4,330.4,457.9,493.7,457.9,591.2c0,85.6,13.9,61.7-354.3,643c-169.2,268.8-320.5,517.6-336.4,555.4c-33.8,77.6-25.9,115.5,59.7,326.5c99.5,248.8,73.7,234.9,810.2,402.1c764.4,173.2,742.5,161.2,776.4,418c27.9,205,27.9,848,0,1055.1c-33.8,256.8-11.9,244.8-776.4,418c-551.4,125.4-648.9,153.3-694.7,197.1c-67.7,63.7-189.1,356.3-189.1,451.9c-2,77.6-13.9,55.7,443.9,782.3c310.5,495.7,310.5,497.7,167.2,692.8c-121.4,161.2-597.2,637-758.4,758.4c-133.4,99.5-219,117.5-308.6,69.7c-23.9-11.9-262.8-161.2-531.5-330.4c-268.7-169.2-517.6-320.5-555.4-336.4c-77.6-33.8-115.4-25.9-326.5,59.7c-248.8,99.5-234.9,73.7-402.1,810.2c-173.2,768.4-163.2,750.5-420,776.4C5268.7,5009.9,4946.2,5017.8,4701.4,5003.9z M5360.3,2035.8c380.2-69.7,736.5-258.8,1017.2-535.5c286.7-282.7,475.8-637,557.4-1045.1c29.9-153.3,29.9-541.5,0-696.7c-163.2-814.2-768.4-1419.3-1584.6-1584.6c-65.7-11.9-223-23.9-348.4-23.9c-240.9,0-384.2,21.9-597.2,89.6C3321.9-1414,2760.5-219.6,3182.5,837.4C3528.9,1701.4,4442.6,2203,5360.3,2035.8z"/></g></g>
</svg>