<?xml version="1.0" encoding="utf-8"?>
<!-- Svg Vector Icons : http://www.onlinewebfonts.com/icon -->
<!DOCTYPE svg PUBLIC "-//W3C//DTD SVG 1.1//EN" "http://www.w3.org/Graphics/SVG/1.1/DTD/svg11.dtd">
<svg version="1.1" xmlns="http://www.w3.org/2000/svg" xmlns:xlink="http://www.w3.org/1999/xlink" x="0px" y="0px" viewBox="0 0 1000 1000" enable-background="new 0 0 1000 1000" xml:space="preserve">
<metadata> Svg Vector Icons : http://www.onlinewebfonts.com/icon </metadata>
<g><path d="M238.5,181.8c-9.7-9.7-17-20.8-21.9-33.3c-4.8-12.5-7.3-25.2-7.3-38c0-12.9,2.4-25.4,7.3-37.5c4.9-12.1,12.2-23.1,21.9-32.8C258,20.1,281.2,10,308.3,10c27.1,0,50.3,10.1,69.8,30.2l386.4,389.5c9.7,8.3,16.7,18.8,20.8,31.3c4.2,12.5,5.9,25.7,5.2,39.6c-0.7,13.9-3.8,27.6-9.4,41.1c-5.6,13.5-13.2,25.2-22.9,34.9L378.1,959.8c-19.4,20.1-42.7,30.2-69.8,30.2c-27.1,0-50.3-10.1-69.8-30.2c-9.7-9.7-17-20.7-21.9-32.8c-4.8-12.1-7.3-24.6-7.3-37.5c0-12.9,2.4-25.5,7.3-38c4.9-12.5,12.2-23.6,21.9-33.3L553,500.5L238.5,181.8z"/></g>
</svg>