<?xml version="1.0" encoding="utf-8"?>
<!-- Svg Vector Icons : http://www.onlinewebfonts.com/icon -->
<!DOCTYPE svg PUBLIC "-//W3C//DTD SVG 1.1//EN" "http://www.w3.org/Graphics/SVG/1.1/DTD/svg11.dtd">
<svg version="1.1" xmlns="http://www.w3.org/2000/svg" xmlns:xlink="http://www.w3.org/1999/xlink" x="0px" y="0px" viewBox="0 0 1000 1000" enable-background="new 0 0 1000 1000" xml:space="preserve">
<metadata> Svg Vector Icons : http://www.onlinewebfonts.com/icon </metadata>
<g><path style="fill:#d7d8d8;" d="M663.3,255c45.1,0,81.7,36.6,81.7,81.7v490c0,45.1-36.6,81.7-81.7,81.7h-490c-45.1,0-81.7-36.6-81.7-81.7v-490c0-45.1,36.6-81.7,81.7-81.7H663.3 M663.3,173.3h-490C83.3,173.3,10,246.6,10,336.7v490C10,916.7,83.3,990,173.3,990h490c90.1,0,163.3-73.3,163.3-163.3v-490C826.7,246.6,753.4,173.3,663.3,173.3L663.3,173.3z"/><path style="fill:#d7d8d8;" d="M137.6,826.7h551.3L597,597l-183.8,91.9L229.5,505.1L137.6,826.7z"/><path style="fill:#d7d8d8;" d="M990,173.3C990,83.3,916.7,10,826.7,10h-490c-75.9,0-139.3,52.3-157.5,122.5h87.2c14.1-24.3,40.2-40.8,70.3-40.8h490c45.1,0,81.7,36.6,81.7,81.7v490c0,30.2-16.5,56.2-40.8,70.3v87.2C937.7,802.6,990,739.2,990,663.3V173.3z"/><path style="fill:#d7d8d8;" d="M540.8,397.9c0,33.8,27.4,61.3,61.3,61.3c33.8,0,61.3-27.4,61.3-61.3s-27.4-61.3-61.3-61.3C568.3,336.7,540.8,364.1,540.8,397.9z"/></g>
</svg>