<?xml version="1.0" encoding="utf-8"?>
<!-- Svg Vector Icons : http://www.onlinewebfonts.com/icon -->
<!DOCTYPE svg PUBLIC "-//W3C//DTD SVG 1.1//EN" "http://www.w3.org/Graphics/SVG/1.1/DTD/svg11.dtd">
<svg version="1.1" xmlns="http://www.w3.org/2000/svg" xmlns:xlink="http://www.w3.org/1999/xlink" x="0px" y="0px" viewBox="0 0 1000 1000" enable-background="new 0 0 1000 1000" xml:space="preserve">
<metadata> Svg Vector Icons : http://www.onlinewebfonts.com/icon </metadata>
<g><path style="fill:#d7d8d8;" d="M132.5,425.3C9.3,425.3,10,487.4,10,542.6v104.1c0,30.4,24.7,55.1,55.1,55.1c2.1,0,4.1,0,6.1,0v91.9c0,33.8,27.4,42.9,61.3,42.9c33.8,0,61.3-9,61.3-42.9v-91.9c2,0,4,0,6.1,0c30.4,0,55.1-24.7,55.1-55.1V542.6C255,487.4,254.8,425.3,132.5,425.3z"/><path style="fill:#d7d8d8;" d="M867.5,425.3c-123.2,0-122.5,62.1-122.5,117.2v104.1c0,30.4,24.7,55.1,55.1,55.1c2.1,0,4.1,0,6.1,0v91.9c0,33.8,27.4,42.9,61.3,42.9c33.8,0,61.3-9,61.3-42.9v-91.9c2,0,4,0,6.1,0c30.4,0,55.1-24.7,55.1-55.1V542.6C990,487.4,989.8,425.3,867.5,425.3z"/><path style="fill:#d7d8d8;" d="M132.5,211.8c50.8,0,91.9,41.1,91.9,91.9c0,50.8-41.1,91.9-91.9,91.9c-50.8,0-91.9-41.1-91.9-91.9C40.6,252.9,81.7,211.8,132.5,211.8z"/><path style="fill:#d7d8d8;" d="M867.5,211.8c50.8,0,91.9,41.1,91.9,91.9c0,50.8-41.1,91.9-91.9,91.9c-50.8,0-91.9-41.1-91.9-91.9C775.6,252.9,816.7,211.8,867.5,211.8z"/><path style="fill:#d7d8d8;" d="M500.5,22.1c81.4,0,147.4,66,147.4,147.4c0,81.4-66,147.4-147.4,147.4c-81.4,0-147.4-66-147.4-147.4C353.1,88,419.1,22.1,500.5,22.1z"/><path style="fill:#d7d8d8;" d="M500,364.1c-123.2,0-183.7,62.1-183.7,117.2v226.6c0,30.4,24.7,55.1,55.1,55.1c6.5,0,12.6,0,18.4,0v183.7c0,16.6,13.3,30.1,29.8,30.5l0.1,0.1l159,0.5l0.6-0.6c0.2,0,0.3,0,0.5,0c16.9,0,30.6-13.7,30.6-30.6V763.1c5.8,0,11.9,0,18.4,0c30.4,0,55.1-24.7,55.1-55.1V481.3C683.8,426.2,622.3,364.1,500,364.1z"/></g>
</svg>